# xmcd
#
# Track frame offsets:
#	150
#	25733
#	48308
#	68018
#	87640
#	108255
#	125063
#	139818
#	157160
#	178610
#	196195
#
# Disc length: 2876 seconds
# Revision: 3
# Processed by: cddbd v1.5.2PL0 Copyright (c) Steve Scherf et al.
# Submitted via: dBpowerAMP V12.0
#
DISCID=980b3a0b
DTITLE=Little Milton - I'm a Gambler
DYEAR=1994
DGENRE=Blues
TTITLE0=Casino Blues
TTITLE1=I've Got The Blues
TTITLE2=Poke Salad Annie
TTITLE3=Like a Rooster on a Hen
TTITLE4=Pledging my Love
TTITLE5=Love is a Gamble
TTITLE6=That's All Right
TTITLE7=Baby Please
TTITLE8=You've Been Gone Too Long
TTITLE9=A Man Needs a Woman
TTITLE10=That's What a Good Woman Can do
EXTD=
EXTT0=
EXTT1=
EXTT2=
EXTT3=
EXTT4=
EXTT5=
EXTT6=
EXTT7=
EXTT8=
EXTT9=
EXTT10=
PLAYORDER=
